<svg xmlns:inkscape="http://www.inkscape.org/namespaces/inkscape" xmlns:sodipodi="http://sodipodi.sourceforge.net/DTD/sodipodi-0.dtd" xmlns="http://www.w3.org/2000/svg" xmlns:svg="http://www.w3.org/2000/svg" viewBox="0 0 12.69922 15.8740225" version="1.1" x="0px" y="0px"><g transform="translate(-21.33683,-90.552932)"><path style="color:#000000;" d="m 31.328125,98.40625 c -0.906221,0 -1.648436,0.744177 -1.648438,1.65039 -3e-6,0.90622 0.742214,1.64844 1.648438,1.64844 0.906225,0 1.650394,-0.74222 1.650391,-1.64844 -2e-6,-0.906213 -0.74417,-1.65039 -1.650391,-1.65039 z m 0,0.794922 c 0.477261,0 0.855468,0.378239 0.855469,0.855468 2e-6,0.47723 -0.378206,0.85547 -0.855469,0.85547 -0.477262,0 -0.855471,-0.37824 -0.855469,-0.85547 1e-6,-0.477228 0.378209,-0.855468 0.855469,-0.855468 z" fill="#000000" stroke-linecap="round" stroke-linejoin="round"/><path style="color:#000000;" d="m 27.257812,99.65625 a 0.3968755,0.3968755 0 0 0 -0.396484,0.39648 0.3968755,0.3968755 0 0 0 0.396484,0.39649 h 2.81836 a 0.3968755,0.3968755 0 0 0 0.398437,-0.39649 0.3968755,0.3968755 0 0 0 -0.398437,-0.39648 z" fill="#000000" stroke-linecap="round" stroke-linejoin="round"/><path style="color:#000000;" d="m 27.263672,99.65625 a 0.3968755,0.3968755 0 0 0 -0.28125,0.113281 0.3968755,0.3968755 0 0 0 -0.0078,0.560549 l 0.949219,0.97656 a 0.3968755,0.3968755 0 0 0 0.5625,0.006 0.3968755,0.3968755 0 0 0 0.0078,-0.56055 L 27.542969,99.775391 A 0.3968755,0.3968755 0 0 0 27.263672,99.65625 Z" fill="#000000" stroke-linecap="round" stroke-linejoin="round"/><path style="color:#000000;" d="m 28.158203,98.650391 a 0.3968755,0.3968755 0 0 0 -0.275391,0.128906 l -0.917968,1.005859 a 0.3968755,0.3968755 0 0 0 0.02734,0.560544 0.3968755,0.3968755 0 0 0 0.560547,-0.0254 L 28.46875,99.3125 a 0.3968755,0.3968755 0 0 0 -0.02539,-0.560547 0.3968755,0.3968755 0 0 0 -0.285156,-0.101562 z" fill="#000000" stroke-linecap="round" stroke-linejoin="round"/><path style="color:#000000;" d="m 26.277344,96.1875 a 0.3968755,0.3968755 0 0 0 -0.541016,0.146484 l -1.408203,2.439453 a 0.3968755,0.3968755 0 0 0 0.144531,0.541016 0.3968755,0.3968755 0 0 0 0.541016,-0.144531 l 1.410156,-2.439453 A 0.3968755,0.3968755 0 0 0 26.277344,96.1875 Z" fill="#000000" stroke-linecap="round" stroke-linejoin="round"/><path style="color:#000000;" d="m 25.982422,96.146484 -1.320313,0.335938 a 0.3968755,0.3968755 0 0 0 -0.287109,0.482422 0.3968755,0.3968755 0 0 0 0.482422,0.287109 l 1.320312,-0.335937 a 0.3968755,0.3968755 0 0 0 0.28711,-0.482422 0.3968755,0.3968755 0 0 0 -0.482422,-0.28711 z" fill="#000000" stroke-linecap="round" stroke-linejoin="round"/><path style="color:#000000;" d="m 25.958984,96.154297 a 0.3968755,0.3968755 0 0 0 -0.257812,0.498047 l 0.414062,1.296875 a 0.3968755,0.3968755 0 0 0 0.498047,0.257812 0.3968755,0.3968755 0 0 0 0.257813,-0.498047 l -0.414063,-1.296875 a 0.3968755,0.3968755 0 0 0 -0.498047,-0.257812 z" fill="#000000" stroke-linecap="round" stroke-linejoin="round"/><path style="color:#000000;" d="m 22.902344,-96.685547 c -0.907107,0 -1.650391,0.745218 -1.650391,1.652344 0,0.907127 0.743283,1.65039 1.650391,1.650391 0.907107,-10e-7 1.650391,-0.743264 1.65039,-1.650391 0,-0.907126 -0.743283,-1.652344 -1.65039,-1.652344 z m 0,0.794922 c 0.478105,0 0.857421,0.379235 0.857422,0.857422 0,0.478187 -0.379317,0.857422 -0.857422,0.857422 -0.478106,0 -0.857422,-0.379235 -0.857422,-0.857422 0,-0.478187 0.379316,-0.857422 0.857422,-0.857422 z" transform="matrix(-0.8660621,0.49993643,-0.50004284,-0.86600067,0,0)" fill="#000000" stroke-linecap="round" stroke-linejoin="round"/><path style="color:#000000;" d="m 28.439453,94.490234 a 0.3968755,0.3968755 0 0 0 -0.300781,0.04102 0.3968755,0.3968755 0 0 0 -0.146485,0.541016 l 1.384766,2.396484 a 0.3968755,0.3968755 0 0 0 0.541016,0.146484 0.3968755,0.3968755 0 0 0 0.146484,-0.542968 l -1.384766,-2.396485 a 0.3968755,0.3968755 0 0 0 -0.240234,-0.185547 z" fill="#000000" stroke-linecap="round" stroke-linejoin="round"/><path style="color:#000000;" d="m 30.197266,95.578125 a 0.3968755,0.3968755 0 0 0 -0.488282,0.273437 l -0.371093,1.3125 a 0.3968755,0.3968755 0 0 0 0.273437,0.488282 0.3968755,0.3968755 0 0 0 0.490234,-0.273438 l 0.371094,-1.310547 a 0.3968755,0.3968755 0 0 0 -0.27539,-0.490234 z" fill="#000000" stroke-linecap="round" stroke-linejoin="round"/><path style="color:#000000;" d="m 28.474609,96.591797 a 0.3968755,0.3968755 0 0 0 -0.472656,0.302734 0.3968755,0.3968755 0 0 0 0.302734,0.472656 l 1.330079,0.291016 a 0.3968755,0.3968755 0 0 0 0.472656,-0.302734 0.3968755,0.3968755 0 0 0 -0.302735,-0.472657 z" fill="#000000" stroke-linecap="round" stroke-linejoin="round"/><path style="color:#000000;" d="m 24.044922,98.40625 c -0.906242,0 -1.650389,0.744156 -1.650391,1.65039 2e-6,0.90624 0.744149,1.64844 1.650391,1.64844 0.906242,0 1.648436,-0.7422 1.648437,-1.64844 -1e-6,-0.906234 -0.742195,-1.65039 -1.648437,-1.65039 z m 0,0.794922 c 0.47728,0 0.855468,0.37822 0.855469,0.855468 -10e-7,0.47725 -0.378189,0.85547 -0.855469,0.85547 -0.477281,0 -0.855468,-0.37822 -0.855469,-0.85547 1e-6,-0.477248 0.378188,-0.855468 0.855469,-0.855468 z" fill="#000000" stroke-linecap="round" stroke-linejoin="round"/></g><text x="0" y="27.699218000000002" fill="#000000" font-size="5px" font-weight="bold" font-family="'Helvetica Neue', Helvetica, Arial-Unicode, Arial, Sans-serif">Created by Meko</text><text x="0" y="32.699218" fill="#000000" font-size="5px" font-weight="bold" font-family="'Helvetica Neue', Helvetica, Arial-Unicode, Arial, Sans-serif">from the Noun Project</text></svg>